<svg width="300" height="300" viewBox="0 0 300 300" fill="none" xmlns="http://www.w3.org/2000/svg">
<path d="M82.4745 242.344C84.9627 240.895 88.0373 240.895 90.5255 242.344L162.645 284.337C169.705 288.447 166.789 299.25 158.62 299.25H14.3803C6.21106 299.25 3.29517 288.447 10.3549 284.337L82.4745 242.344Z" fill="url(#paint0_linear_3318_134)"/>
<path d="M300 150C300 232.843 232.843 300 150 300C67.1573 300 0 232.843 0 150C0 67.1573 67.1573 0 150 0C232.843 0 300 67.1573 300 150Z" fill="url(#paint1_linear_3318_134)"/>
<path d="M244.29 112.35C244.29 112.35 266.21 120.66 268.47 124.72C272.65 132.24 271.87 176.47 260.32 188C255.8 192.51 222.55 196.73 222.55 196.73L244.29 112.34V112.35Z" fill="#9013FE"/>
<path d="M222.54 196.74C222.54 196.74 255.78 192.52 260.31 188C264.82 183.5 267.69 174.01 269.26 163.67C268.89 164 257.15 174.14 233.73 153.54C233.72 153.53 233.7 153.52 233.69 153.5L222.55 196.73L222.54 196.74Z" fill="#7105E2"/>
<path d="M76.6001 196.74C76.6001 196.74 43.3601 192.52 38.8301 188C34.3201 183.5 31.4501 174.01 29.8801 163.67C27.4301 147.53 28.1301 129.31 30.6801 124.72C32.9301 120.66 54.8601 112.35 54.8601 112.35L65.4601 153.51L76.6001 196.74Z" fill="#9013FE"/>
<path d="M76.6001 196.74C76.6001 196.74 43.3601 192.52 38.8301 188C34.3201 183.5 31.4501 174.01 29.8801 163.67C30.2501 164 41.9901 174.14 65.4101 153.54C65.4201 153.53 65.4401 153.52 65.4501 153.5L76.5901 196.73L76.6001 196.74Z" fill="#7105E2"/>
<path d="M245.83 115.35C248.69 116.47 252.66 118.1 256.5 119.9C264.68 123.74 266.34 125.62 266.52 125.85C266.73 126.26 267.8 128.65 268.32 135.98C268.72 141.59 268.65 148.22 268.12 154.66C267.53 161.86 266.4 168.53 264.85 173.95C263.19 179.76 261.07 184.07 258.73 186.41C258.66 186.47 257.59 187.39 253.03 188.76C250.06 189.65 246.23 190.55 241.63 191.45C235.57 192.63 229.41 193.55 225.54 194.08L245.83 115.35ZM242.68 109.25L219.43 199.49L222.84 199.06C228.52 198.34 257.12 194.5 261.96 189.66C274.54 177.11 275.13 131.92 270.51 123.6C268.03 119.14 250.45 112.2 245.12 110.18L242.69 109.26L242.68 109.25Z" fill="#0A0613"/>
<path d="M53.3101 115.35L73.6001 194.08C69.7401 193.55 63.5701 192.63 57.5101 191.45C52.9101 190.56 49.0801 189.65 46.1101 188.76C41.5501 187.39 40.4801 186.48 40.4101 186.41C38.0701 184.07 35.9501 179.76 34.2901 173.95C32.7401 168.53 31.6101 161.86 31.0201 154.66C30.4901 148.22 30.4201 141.59 30.8201 135.98C31.3401 128.65 32.4101 126.26 32.6201 125.85C32.8101 125.61 34.4601 123.74 42.6401 119.9C46.4801 118.1 50.4501 116.47 53.3101 115.35ZM56.4701 109.25L54.0401 110.17C48.7101 112.19 31.1301 119.13 28.6501 123.59C24.0301 131.92 24.6101 177.1 37.2001 189.65C42.0401 194.48 70.6401 198.33 76.3201 199.05L79.7301 199.48L56.4701 109.25Z" fill="#0A0613"/>
<path d="M149.56 251.83C205.7 251.83 251.21 206.32 251.21 150.18C251.21 94.0403 205.7 48.53 149.56 48.53C93.4204 48.53 47.9102 94.0403 47.9102 150.18C47.9102 206.32 93.4204 251.83 149.56 251.83Z" fill="white"/>
<path d="M251.22 150.17C251.22 206.31 205.71 251.82 149.57 251.82C93.4302 251.82 47.9102 206.31 47.9102 150.17C47.9102 144.24 48.4202 138.43 49.4002 132.79C57.6502 180.64 99.3602 217.05 149.57 217.05C199.78 217.05 241.49 180.65 249.73 132.79C250.71 138.44 251.22 144.25 251.22 150.17Z" fill="#E8D2FF"/>
<path d="M149.57 254.35C92.1301 254.35 45.3901 207.62 45.3901 150.17C45.3901 92.72 92.1301 46 149.57 46C207.01 46 253.75 92.73 253.75 150.18C253.75 207.63 207.02 254.36 149.57 254.36V254.35ZM149.57 50.57C94.6501 50.57 49.9701 95.25 49.9701 150.17C49.9701 205.09 94.6501 249.77 149.57 249.77C204.49 249.77 249.17 205.09 249.17 150.17C249.17 95.25 204.49 50.57 149.57 50.57Z" fill="#0A0613"/>
<path d="M149.25 168.62V169L149.01 168.81L149.25 168.62Z" fill="#D8D8D8"/>
<path d="M149.01 168.81L148.77 169V168.62L149.01 168.81Z" fill="#D8D8D8"/>
<path d="M246.07 130.91C229.9 91.05 192.02 65.3 149.57 65.3C107.12 65.3 69.2601 91.03 53.0801 130.85L48.8401 129.13C65.7301 87.57 105.26 60.72 149.56 60.72C193.86 60.72 233.43 87.59 250.3 129.19L246.06 130.91H246.07Z" fill="#0A0613"/>
<g opacity="0.35">
<path d="M251.21 150.18C251.21 158.98 250.1 167.53 248 175.66C230.37 209.73 192.92 239.04 149.58 239.04C106.24 239.04 68.8001 209.73 51.1601 175.66C49.9101 170.81 49.0001 165.82 48.4701 160.71C71.2601 186.31 104.4 204.94 141.29 204.94C188.29 204.94 229.23 174.71 250.41 138.33C250.48 138.5 250.54 138.66 250.6 138.82C251.02 142.55 251.23 146.34 251.23 150.17L251.21 150.18Z" fill="#0A0613"/>
</g>
<path d="M251.21 150.18C251.21 158.98 250.1 167.53 248 175.66C230.37 209.73 192.92 239.04 149.58 239.04C106.24 239.04 68.8001 209.73 51.1601 175.66C49.0501 167.52 47.9401 158.97 47.9401 150.18C47.9401 146.33 48.1501 142.53 48.5801 138.8C62.2701 100.86 102.3 73.4 149.56 73.4C196.82 73.4 236.87 100.87 250.58 138.82C251 142.55 251.21 146.34 251.21 150.17V150.18Z" fill="#0A0613"/>
<path opacity="0.1" d="M149.57 192.89C192.665 192.89 227.6 168.158 227.6 137.65C227.6 107.142 192.665 82.41 149.57 82.41C106.475 82.41 71.5402 107.142 71.5402 137.65C71.5402 168.158 106.475 192.89 149.57 192.89Z" fill="#E8D2FF"/>
<path d="M260.51 150.21C262.857 150.21 264.76 148.307 264.76 145.96C264.76 143.613 262.857 141.71 260.51 141.71C258.163 141.71 256.26 143.613 256.26 145.96C256.26 148.307 258.163 150.21 260.51 150.21Z" fill="white"/>
<path d="M259.61 167.22C261.957 167.22 263.86 165.317 263.86 162.97C263.86 160.623 261.957 158.72 259.61 158.72C257.263 158.72 255.36 160.623 255.36 162.97C255.36 165.317 257.263 167.22 259.61 167.22Z" fill="white"/>
<path d="M38.6401 150.21C40.9873 150.21 42.8901 148.307 42.8901 145.96C42.8901 143.613 40.9873 141.71 38.6401 141.71C36.2929 141.71 34.3901 143.613 34.3901 145.96C34.3901 148.307 36.2929 150.21 38.6401 150.21Z" fill="white"/>
<path d="M39.5302 167.22C41.8774 167.22 43.7802 165.317 43.7802 162.97C43.7802 160.623 41.8774 158.72 39.5302 158.72C37.1829 158.72 35.2802 160.623 35.2802 162.97C35.2802 165.317 37.1829 167.22 39.5302 167.22Z" fill="white"/>
<g opacity="0.72">
<path d="M92.1601 179.29C99.7596 179.29 105.92 169.664 105.92 157.79C105.92 145.916 99.7596 136.29 92.1601 136.29C84.5607 136.29 78.4001 145.916 78.4001 157.79C78.4001 169.664 84.5607 179.29 92.1601 179.29Z" fill="#0A0613"/>
<path d="M206.99 179.27C214.59 179.27 220.75 169.644 220.75 157.77C220.75 145.896 214.59 136.27 206.99 136.27C199.391 136.27 193.23 145.896 193.23 157.77C193.23 169.644 199.391 179.27 206.99 179.27Z" fill="#0A0613"/>
</g>
<path d="M149.59 200.19C143.35 200.19 138.66 197.66 136.35 196.09C134.03 194.51 133.43 191.36 135 189.04C136.58 186.72 139.73 186.12 142.05 187.69C143.46 188.65 146.4 190.22 150.28 190.02C153.33 189.86 155.67 188.67 157.09 187.7C159.4 186.12 162.56 186.71 164.14 189.03C165.72 191.34 165.13 194.5 162.81 196.08C160.32 197.78 156.22 199.87 150.81 200.15C150.4 200.17 149.99 200.18 149.59 200.18V200.19Z" fill="white"/>
<path d="M92.1601 179.29C99.7596 179.29 105.92 169.664 105.92 157.79C105.92 145.916 99.7596 136.29 92.1601 136.29C84.5607 136.29 78.4001 145.916 78.4001 157.79C78.4001 169.664 84.5607 179.29 92.1601 179.29Z" fill="white"/>
<path d="M206.99 179.27C214.59 179.27 220.75 169.644 220.75 157.77C220.75 145.896 214.59 136.27 206.99 136.27C199.391 136.27 193.23 145.896 193.23 157.77C193.23 169.644 199.391 179.27 206.99 179.27Z" fill="white"/>
<defs>
<linearGradient id="paint0_linear_3318_134" x1="150" y1="0" x2="150" y2="300" gradientUnits="userSpaceOnUse">
<stop stop-color="#C2A1F7"/>
<stop offset="1" stop-color="#338BFF"/>
</linearGradient>
<linearGradient id="paint1_linear_3318_134" x1="150" y1="0" x2="150" y2="300" gradientUnits="userSpaceOnUse">
<stop stop-color="#C2A1F7"/>
<stop offset="1" stop-color="#338BFF"/>
</linearGradient>
</defs>
</svg>
