<svg width="4435" height="573" viewBox="0 0 4435 573" fill="none" xmlns="http://www.w3.org/2000/svg">
<g clip-path="url(#clip0_3321_260)">
<path d="M458.28 13.42H510.22C517.75 13.42 523.84 19.5 523.84 26.98V452.13C523.84 459.62 517.74 465.69 510.22 465.69H460.7C453.37 465.69 447.35 459.92 447.08 452.63C446.65 441.09 433.1 435.6 424.29 443.13C403.16 461.24 375.27 471.5 340.43 471.5C255.42 471.5 190.22 407.14 190.22 310.88C190.22 214.62 255.43 147.36 340.43 147.36C340.61 147.36 340.77 147.39 340.93 147.39V147.36H431.04C438.56 147.36 444.66 141.29 444.66 133.8V26.98C444.66 19.49 450.76 13.42 458.28 13.42ZM444.66 228.19C444.66 220.7 438.56 214.63 431.04 214.63H357.04V214.7C306.03 215.41 272.32 253.44 272.32 309.72C272.32 366 306.68 403.66 358.49 403.66C410.3 403.66 444.66 365.97 444.66 309.14V228.19Z" fill="white"/>
<path d="M869.81 327.59C869.26 333.26 864.44 337.56 858.73 337.56H655.02C647.89 337.56 642.46 344.2 644.11 351.1C652.69 387.25 675.66 409.46 716.76 409.46C748.74 409.46 774.91 394.99 793.54 372.42L793.52 372.39H793.57L793.6 372.36L793.68 372.39H850.29C857.87 372.39 863.41 379.86 860.91 386.97C830.04 474.84 717.91 471.5 717.91 471.5C621.83 471.5 557.79 407.71 557.79 311.45C557.79 215.19 620.08 147.36 714.41 147.36C808.74 147.36 871.02 209.98 871.02 304.5C871.03 311.94 870.51 320.17 869.8 327.59H869.81ZM774.59 284.21C781.63 284.21 787.04 277.72 785.54 270.87C776.91 231.6 752.78 209.41 714.43 209.41C676.08 209.41 653.08 231.51 644.09 270.64C642.5 277.56 647.89 284.21 655.01 284.21H774.6H774.59Z" fill="white"/>
<path d="M937.64 153.17C943.05 153.17 947.89 156.49 949.84 161.52L1019.98 344.01C1024.26 355.16 1040.12 355.14 1044.38 343.98L1114.03 161.54C1115.95 156.5 1120.81 153.16 1126.23 153.16H1184.31C1193.64 153.16 1199.97 162.63 1196.34 171.2L1075.17 457.74C1073.13 462.57 1068.39 465.7 1063.14 465.7H1001.27C996.03 465.7 991.3 462.58 989.25 457.77L867.54 171.23C863.9 162.65 870.22 153.16 879.56 153.16H937.64V153.17Z" fill="white"/>
<path d="M1499.59 0L1134.71 572.37H1081.23L1444.08 0H1499.59Z" fill="white"/>
<path d="M1625.2 217.52C1620.69 217.52 1617.04 221.17 1617.04 225.65V457.57C1617.04 462.06 1613.39 465.69 1608.88 465.69H1546.01C1541.5 465.69 1537.85 462.05 1537.85 457.57V225.65C1537.85 221.16 1534.2 217.52 1529.69 217.52H1480.23C1475.72 217.52 1472.07 213.88 1472.07 209.4V161.28C1472.07 156.79 1475.72 153.16 1480.23 153.16H1529.69C1534.2 153.16 1537.85 149.52 1537.85 145.03V113.4C1537.85 108.91 1541.5 105.28 1546.01 105.28H1608.88C1613.39 105.28 1617.04 108.92 1617.04 113.4V145.03C1617.04 149.52 1620.69 153.16 1625.2 153.16H1675.84C1680.35 153.16 1684 156.8 1684 161.28V209.4C1684 213.89 1680.35 217.52 1675.84 217.52H1625.2Z" fill="white"/>
<path d="M1999.6 458.88C1999.6 462.65 1996.53 465.7 1992.75 465.7H1929.91C1926.23 465.7 1923.21 462.8 1923.06 459.14L1922.3 439.76C1922.06 433.73 1914.6 430.91 1910.52 435.37C1889.12 458.76 1858.42 471.5 1826.09 471.5C1761.46 471.5 1717.79 432.64 1717.79 374.66C1717.79 316.68 1770.78 274.92 1851.12 274.92C1870.24 274.92 1891.19 276.75 1912.34 280.4C1916.54 281.13 1920.4 277.98 1920.4 273.73V222.02C1920.4 218.25 1917.33 215.2 1913.55 215.2H1744.43C1740.65 215.2 1737.58 212.14 1737.58 208.38V159.98C1737.58 156.21 1740.65 153.16 1744.43 153.16H1992.74C1996.52 153.16 1999.59 156.21 1999.59 159.98V458.87L1999.6 458.88ZM1920.19 341.2C1920.41 337.8 1917.91 334.73 1914.55 334.12C1896.05 330.77 1877.35 328.87 1861.02 328.87C1824.33 328.87 1799.9 346.27 1799.9 372.94C1799.9 399.61 1816.79 415.27 1848.8 415.27C1884.02 415.27 1917.11 388.53 1920.19 341.21V341.2Z" fill="white"/>
<path d="M2113.46 13.42C2119.28 13.42 2124 18.12 2124 23.92V394.94C2124 398.15 2126.62 400.74 2129.84 400.74H2198.61C2204.43 400.74 2209.15 405.44 2209.15 411.25V455.19C2209.15 460.99 2204.43 465.69 2198.61 465.69H2055.37C2049.54 465.69 2044.83 460.99 2044.83 455.19V23.92C2044.83 18.12 2049.55 13.42 2055.37 13.42H2113.46Z" fill="white"/>
<path d="M2319.92 13.42C2325.74 13.42 2330.46 18.12 2330.46 23.92V394.94C2330.46 398.15 2333.08 400.74 2336.3 400.74H2405.07C2410.89 400.74 2415.61 405.44 2415.61 411.25V455.19C2415.61 460.99 2410.89 465.69 2405.07 465.69H2261.83C2256 465.69 2251.29 460.99 2251.29 455.19V23.92C2251.29 18.12 2256.01 13.42 2261.83 13.42H2319.92Z" fill="white"/>
<path d="M2741.95 327.59C2741.4 333.26 2736.58 337.56 2730.87 337.56H2527.16C2520.03 337.56 2514.6 344.2 2516.25 351.1C2524.83 387.25 2547.8 409.46 2588.9 409.46C2620.88 409.46 2647.05 394.99 2665.68 372.42L2665.66 372.39H2665.71L2665.74 372.36L2665.82 372.39H2722.43C2730.01 372.39 2735.55 379.86 2733.05 386.97C2702.18 474.84 2590.05 471.5 2590.05 471.5C2493.97 471.5 2429.93 407.71 2429.93 311.45C2429.93 215.19 2492.22 147.36 2586.55 147.36C2680.88 147.36 2743.16 209.98 2743.16 304.5C2743.17 311.94 2742.65 320.17 2741.94 327.59H2741.95ZM2646.72 284.21C2653.76 284.21 2659.17 277.72 2657.67 270.87C2649.04 231.6 2624.91 209.41 2586.56 209.41C2548.21 209.41 2525.21 231.51 2516.22 270.64C2514.63 277.56 2520.02 284.21 2527.14 284.21H2646.73H2646.72Z" fill="white"/>
<path d="M2800.28 397.47C2803.88 391.71 2811.3 389.48 2817.41 392.51C2843.62 405.52 2869.93 410.03 2897.17 410.03C2926.28 410.03 2946.08 397.86 2946.08 378.72C2946.08 359.58 2923.95 349.15 2892.5 341.03L2866.31 334.07C2813.33 320.15 2777.22 299.85 2777.22 250.58C2777.22 188.54 2826.13 147.36 2900.67 147.36C2941.84 147.36 2977.68 154.88 3006.66 170.67C3013.46 174.38 3015.63 183.12 3011.44 189.62L2992.21 219.55C2988.62 225.11 2981.45 227.29 2975.45 224.48C2953.39 214.18 2930.08 209.41 2905.9 209.41C2877.37 209.41 2857.58 219.85 2857.58 237.83C2857.58 255.81 2877.37 265.08 2904.74 272.04L2930.94 279.58C2984.5 293.5 3027.02 317.85 3027.02 372.94C3027.02 432.08 2974.61 471.52 2896.01 471.52C2853.54 471.52 2815.21 461.88 2787.16 442.19C2781.37 438.12 2779.85 430.2 2783.59 424.21L2800.29 397.48L2800.28 397.47Z" fill="white"/>
<path d="M0 267.99C47.39 267.99 54.16 241.69 54.83 218.1C54.83 199.22 52.12 180.35 49.42 162.14C46.71 142.59 44.01 123.71 44.01 105.51C44.01 43.4899 85.31 17.1899 142.84 17.1899H156.38V54.2699H144.87C104.93 54.9399 90.71 75.8399 90.71 112.25C90.71 127.76 93.42 143.94 95.45 160.12C98.16 176.98 100.86 193.16 100.86 211.35C101.54 254.49 81.9 276.07 51.44 284.16V285.51C81.9 293.6 100.86 315.85 100.86 359C100.86 377.2 98.15 394.05 95.45 410.91C93.42 427.09 90.71 443.27 90.71 459.45C90.71 497.2 106.96 517.43 144.87 518.1H156.38V555.18H142.17C86.66 555.18 44.01 530.91 44.01 462.82C44.01 444.62 46.72 425.74 50.1 407.54C52.13 388.66 54.84 370.46 54.84 352.93C54.83 331.35 48.07 302.36 0 302.36V267.99Z" fill="white"/>
<path d="M3217.23 302.37C3169.84 302.37 3163.07 331.36 3162.4 352.93C3162.4 370.46 3165.11 388.66 3167.81 407.54C3170.52 425.74 3173.22 444.62 3173.22 462.82C3173.22 530.91 3130.58 555.18 3075.06 555.18H3060.85V518.1H3072.36C3110.27 517.43 3126.52 497.2 3126.52 459.45C3126.52 443.27 3123.81 427.09 3121.78 410.91C3119.07 394.05 3116.37 377.2 3116.37 359C3115.69 315.86 3135.33 293.6 3165.79 285.51V284.16C3135.33 276.07 3116.37 254.5 3116.37 211.35C3116.37 193.15 3119.08 176.96 3121.78 160.12C3123.81 143.94 3126.52 127.76 3126.52 112.25C3126.52 75.85 3112.31 54.94 3072.36 54.27H3060.85V17.2H3074.39C3131.93 17.2 3173.22 43.4999 3173.22 105.52C3173.22 123.72 3170.51 142.6 3167.81 162.15C3165.1 180.35 3162.4 199.23 3162.4 218.11C3162.4 241.71 3169.17 268 3217.23 268V302.37Z" fill="white"/>
</g>
<path d="M3331.63 449V121.727H3446.05C3468.85 121.727 3487.65 125.669 3502.46 133.553C3517.27 141.33 3528.29 151.823 3535.54 165.033C3542.78 178.137 3546.4 192.679 3546.4 208.659C3546.4 222.722 3543.9 234.334 3538.89 243.496C3533.99 252.658 3527.49 259.902 3519.4 265.229C3511.41 270.555 3502.72 274.497 3493.35 277.054V280.25C3503.36 280.889 3513.43 284.405 3523.55 290.797C3533.67 297.189 3542.14 306.351 3548.96 318.283C3555.78 330.214 3559.19 344.81 3559.19 362.068C3559.19 378.474 3555.46 393.229 3548 406.333C3540.54 419.437 3528.77 429.824 3512.69 437.494C3496.6 445.165 3475.66 449 3449.88 449H3331.63ZM3371.26 413.844H3449.88C3475.77 413.844 3494.15 408.837 3505.01 398.822C3515.99 388.702 3521.47 376.45 3521.47 362.068C3521.47 350.989 3518.65 340.761 3513 331.386C3507.36 321.905 3499.32 314.341 3488.88 308.695C3478.43 302.942 3466.08 300.065 3451.8 300.065H3371.26V413.844ZM3371.26 265.548H3444.77C3456.7 265.548 3467.46 263.205 3477.05 258.517C3486.74 253.83 3494.41 247.224 3500.06 238.702C3505.81 230.179 3508.69 220.165 3508.69 208.659C3508.69 194.277 3503.68 182.079 3493.67 172.065C3483.65 161.944 3467.78 156.884 3446.05 156.884H3371.26V265.548ZM3601.81 449V121.727H3641.44V413.844H3793.57V449H3601.81ZM4095.82 285.364C4095.82 319.881 4089.59 349.71 4077.13 374.852C4064.66 399.994 4047.56 419.384 4025.83 433.02C4004.1 446.656 3979.28 453.474 3951.36 453.474C3923.45 453.474 3898.63 446.656 3876.9 433.02C3855.16 419.384 3838.06 399.994 3825.6 374.852C3813.14 349.71 3806.9 319.881 3806.9 285.364C3806.9 250.847 3813.14 221.017 3825.6 195.875C3838.06 170.733 3855.16 151.344 3876.9 137.707C3898.63 124.071 3923.45 117.253 3951.36 117.253C3979.28 117.253 4004.1 124.071 4025.83 137.707C4047.56 151.344 4064.66 170.733 4077.13 195.875C4089.59 221.017 4095.82 250.847 4095.82 285.364ZM4057.47 285.364C4057.47 257.026 4052.73 233.109 4043.25 213.613C4033.87 194.117 4021.14 179.362 4005.06 169.348C3989.08 159.334 3971.18 154.327 3951.36 154.327C3931.55 154.327 3913.6 159.334 3897.51 169.348C3881.53 179.362 3868.8 194.117 3859.32 213.613C3849.94 233.109 3845.26 257.026 3845.26 285.364C3845.26 313.702 3849.94 337.619 3859.32 357.114C3868.8 376.61 3881.53 391.365 3897.51 401.379C3913.6 411.393 3931.55 416.401 3951.36 416.401C3971.18 416.401 3989.08 411.393 4005.06 401.379C4021.14 391.365 4033.87 376.61 4043.25 357.114C4052.73 337.619 4057.47 313.702 4057.47 285.364ZM4363.68 224C4360.17 213.24 4355.53 203.599 4349.78 195.076C4344.13 186.447 4337.37 179.096 4329.48 173.023C4321.71 166.951 4312.87 162.317 4302.96 159.121C4293.05 155.925 4282.18 154.327 4270.36 154.327C4250.97 154.327 4233.34 159.334 4217.46 169.348C4201.59 179.362 4188.97 194.117 4179.59 213.613C4170.22 233.109 4165.53 257.026 4165.53 285.364C4165.53 313.702 4170.27 337.619 4179.75 357.114C4189.23 376.61 4202.07 391.365 4218.26 401.379C4234.46 411.393 4252.67 416.401 4272.92 416.401C4291.67 416.401 4308.18 412.406 4322.45 404.415C4336.84 396.319 4348.02 384.92 4356.01 370.218C4364.11 355.41 4368.16 337.991 4368.16 317.963L4380.3 320.52H4281.86V285.364H4406.51V320.52C4406.51 347.473 4400.76 370.911 4389.25 390.832C4377.85 410.754 4362.08 426.202 4341.95 437.175C4321.92 448.041 4298.91 453.474 4272.92 453.474C4243.94 453.474 4218.48 446.656 4196.53 433.02C4174.69 419.384 4157.65 399.994 4145.39 374.852C4133.25 349.71 4127.18 319.881 4127.18 285.364C4127.18 259.476 4130.64 236.198 4137.56 215.531C4144.59 194.756 4154.5 177.072 4167.29 162.477C4180.07 147.881 4195.2 136.695 4212.67 128.918C4230.14 121.141 4249.37 117.253 4270.36 117.253C4287.62 117.253 4303.7 119.863 4318.62 125.083C4333.64 130.197 4347.01 137.494 4358.73 146.976C4370.55 156.351 4380.41 167.59 4388.29 180.694C4396.18 193.691 4401.61 208.126 4404.59 224H4363.68Z" fill="white"/>
<defs>
<clipPath id="clip0_3321_260">
<rect width="3217.23" height="572.37" fill="white"/>
</clipPath>
</defs>
</svg>
